# xmcd
#
# Track frame offsets:
#	150
#	18355
#	35415
#	47307
#	66799
#	89116
#	103164
#	120898
#	135438
#	154421
#	170297
#	184651
#	201154
#	210281
#	231007
#	250688
#	265479
#	286422
#	298700
#
# Disc length: 4171 seconds
#
# Revision: 0
# Processed by: cddbd v1.5.2PL0 Copyright (c) Steve Scherf et al.
# Submitted via: EZCDAudioConverter 1.0.4.1
#
DISCID=09104913
DTITLE=Willie Nelson - To All The Girls...
DYEAR=2013
DGENRE=Country
TTITLE0=Willie Nelson with Dolly Parton - From Here To The Moon And Back
TTITLE1=Willie Nelson with Miranda Lambert - She Was No Good For Me
TTITLE2=Willie Nelson with The Secret Sisters - It Won't Be Very Long
TTITLE3=Willie Nelson with Rosanne Cash - Please Don't Tell Me How The Story E
TTITLE3=nds
TTITLE4=Willie Nelson with Sheryl Crow - Far Away Places
TTITLE5=Willie Nelson with Wynonna Judd - Bloody Mary Morning
TTITLE6=Willie Nelson with Carrie Underwood - Always On My Mind
TTITLE7=Willie Nelson with Loretta Lynn - Somewhere Between
TTITLE8=Willie Nelson with Alison Krauss - No Mas Amor
TTITLE9=Willie Nelson with Melanie Cannon - Back To Earth
TTITLE10=Willie Nelson with Mavis Staples - Grandma's Hands
TTITLE11=Willie Nelson with Norah Jones - Walkin'
TTITLE12=Willie Nelson with Shelby Lynne - Till The End Of The World
TTITLE13=Willie Nelson with Lily Meola - Will You Remember Mine
TTITLE14=Willie Nelson with Emmylou Harris - Dry Lightning
TTITLE15=Willie Nelson with Brandi Carlile - Making Believe
TTITLE16=Willie Nelson with Paula Nelson - Have You Ever Seen The Rain
TTITLE17=Willie Nelson with Tina Rose - After The Fire Is Gone
TTITLE18=Willie Nelson - Bloody Mary Morning [Solo Version] [Bonustrack]
EXTD=
EXTT0=
EXTT1=
EXTT2=
EXTT3=
EXTT4=
EXTT5=
EXTT6=
EXTT7=
EXTT8=
EXTT9=
EXTT10=
EXTT11=
EXTT12=
EXTT13=
EXTT14=
EXTT15=
EXTT16=
EXTT17=
EXTT18=
PLAYORDER=
